<mxfile host="app.diagrams.net" agent="Mozilla/5.0 (Windows NT 10.0; Win64; x64; rv:128.0) Gecko/20100101 Firefox/128.0" version="24.9.1">
  <diagram name="Page-1" id="AFlYyg3g9-M6d9hMJ50g">
    <mxGraphModel dx="3056" dy="1203" grid="1" gridSize="12" guides="1" tooltips="1" connect="1" arrows="1" fold="1" page="1" pageScale="1" pageWidth="850" pageHeight="1100" background="#ffffff" math="0" shadow="0">
      <root>
        <mxCell id="0" />
        <mxCell id="1" parent="0" />
        <mxCell id="44x8UHvKD6XHon5MFAgd-1" value="" style="rounded=0;whiteSpace=wrap;html=1;" vertex="1" parent="1">
          <mxGeometry width="1692" height="110" as="geometry" />
        </mxCell>
        <mxCell id="44x8UHvKD6XHon5MFAgd-3" value="&lt;h2&gt;&lt;font style=&quot;font-size: 61px;&quot; face=&quot;Garamond&quot;&gt;WEBSITE TITLE&lt;/font&gt;&lt;/h2&gt;" style="text;html=1;align=center;verticalAlign=middle;whiteSpace=wrap;rounded=0;" vertex="1" parent="1">
          <mxGeometry x="601" y="10" width="490" height="100" as="geometry" />
        </mxCell>
        <mxCell id="44x8UHvKD6XHon5MFAgd-6" value="" style="rounded=0;whiteSpace=wrap;html=1;" vertex="1" parent="1">
          <mxGeometry y="110" width="1692" height="1011" as="geometry" />
        </mxCell>
        <mxCell id="44x8UHvKD6XHon5MFAgd-11" value="" style="endArrow=none;html=1;rounded=0;strokeWidth=4;" edge="1" parent="1">
          <mxGeometry width="50" height="50" relative="1" as="geometry">
            <mxPoint x="84" y="60" as="sourcePoint" />
            <mxPoint x="36" y="60" as="targetPoint" />
            <Array as="points">
              <mxPoint x="60" y="60" />
            </Array>
          </mxGeometry>
        </mxCell>
        <mxCell id="44x8UHvKD6XHon5MFAgd-12" value="" style="endArrow=none;html=1;rounded=0;strokeWidth=4;" edge="1" parent="1">
          <mxGeometry width="50" height="50" relative="1" as="geometry">
            <mxPoint x="84" y="36" as="sourcePoint" />
            <mxPoint x="36" y="36" as="targetPoint" />
            <Array as="points" />
          </mxGeometry>
        </mxCell>
        <mxCell id="44x8UHvKD6XHon5MFAgd-13" value="" style="endArrow=none;html=1;rounded=0;strokeWidth=4;" edge="1" parent="1">
          <mxGeometry width="50" height="50" relative="1" as="geometry">
            <mxPoint x="84" y="48" as="sourcePoint" />
            <mxPoint x="36" y="48" as="targetPoint" />
            <Array as="points" />
          </mxGeometry>
        </mxCell>
        <mxCell id="44x8UHvKD6XHon5MFAgd-14" value="Drop down Menu" style="swimlane;horizontal=0;whiteSpace=wrap;html=1;" vertex="1" parent="1">
          <mxGeometry x="-516" y="48" width="200" height="186" as="geometry" />
        </mxCell>
        <mxCell id="44x8UHvKD6XHon5MFAgd-9" value="&lt;font style=&quot;font-size: 28px;&quot;&gt;About&lt;/font&gt;" style="text;html=1;align=center;verticalAlign=middle;whiteSpace=wrap;rounded=0;" vertex="1" parent="44x8UHvKD6XHon5MFAgd-14">
          <mxGeometry x="24" y="6" width="96" height="44" as="geometry" />
        </mxCell>
        <mxCell id="44x8UHvKD6XHon5MFAgd-10" value="&lt;font style=&quot;font-size: 28px;&quot;&gt;Local&lt;/font&gt;" style="text;html=1;align=center;verticalAlign=middle;whiteSpace=wrap;rounded=0;" vertex="1" parent="44x8UHvKD6XHon5MFAgd-14">
          <mxGeometry x="24" y="94" width="96" height="44" as="geometry" />
        </mxCell>
        <mxCell id="44x8UHvKD6XHon5MFAgd-16" value="&lt;font style=&quot;font-size: 28px;&quot;&gt;For You&lt;/font&gt;" style="text;html=1;align=center;verticalAlign=middle;whiteSpace=wrap;rounded=0;" vertex="1" parent="44x8UHvKD6XHon5MFAgd-14">
          <mxGeometry x="24" y="138" width="112" height="44" as="geometry" />
        </mxCell>
        <mxCell id="44x8UHvKD6XHon5MFAgd-17" value="&lt;font style=&quot;font-size: 28px;&quot;&gt;Sign in&lt;/font&gt;" style="text;html=1;align=center;verticalAlign=middle;whiteSpace=wrap;rounded=0;" vertex="1" parent="44x8UHvKD6XHon5MFAgd-14">
          <mxGeometry x="32" y="50" width="96" height="44" as="geometry" />
        </mxCell>
        <mxCell id="44x8UHvKD6XHon5MFAgd-21" value="" style="rounded=1;whiteSpace=wrap;html=1;" vertex="1" parent="1">
          <mxGeometry x="204" y="252" width="660" height="132" as="geometry" />
        </mxCell>
        <mxCell id="44x8UHvKD6XHon5MFAgd-22" value="&lt;h1 align=&quot;center&quot; style=&quot;margin-top: 0px;&quot;&gt;&lt;font style=&quot;font-size: 29px;&quot;&gt;Headline&lt;/font&gt;&lt;/h1&gt;&lt;p align=&quot;center&quot;&gt;&lt;font style=&quot;font-size: 29px;&quot;&gt;&lt;font&gt;Short Description&lt;/font&gt;&lt;font&gt;&lt;br&gt;&lt;/font&gt;&lt;/font&gt;&lt;/p&gt;" style="text;html=1;whiteSpace=wrap;overflow=hidden;rounded=0;align=center;" vertex="1" parent="1">
          <mxGeometry x="300" y="261" width="468" height="114" as="geometry" />
        </mxCell>
        <mxCell id="44x8UHvKD6XHon5MFAgd-25" value="" style="rounded=1;whiteSpace=wrap;html=1;" vertex="1" parent="1">
          <mxGeometry x="204" y="432" width="660" height="132" as="geometry" />
        </mxCell>
        <mxCell id="44x8UHvKD6XHon5MFAgd-26" value="&lt;h1 align=&quot;center&quot; style=&quot;margin-top: 0px;&quot;&gt;&lt;font style=&quot;font-size: 29px;&quot;&gt;Headline&lt;/font&gt;&lt;/h1&gt;&lt;p align=&quot;center&quot;&gt;&lt;font style=&quot;font-size: 29px;&quot;&gt;&lt;font&gt;Short Description&lt;/font&gt;&lt;font&gt;&lt;br&gt;&lt;/font&gt;&lt;/font&gt;&lt;/p&gt;" style="text;html=1;whiteSpace=wrap;overflow=hidden;rounded=0;align=center;" vertex="1" parent="1">
          <mxGeometry x="300" y="441" width="468" height="114" as="geometry" />
        </mxCell>
        <mxCell id="44x8UHvKD6XHon5MFAgd-27" value="" style="rounded=1;whiteSpace=wrap;html=1;" vertex="1" parent="1">
          <mxGeometry x="204" y="612" width="660" height="132" as="geometry" />
        </mxCell>
        <mxCell id="44x8UHvKD6XHon5MFAgd-28" value="&lt;h1 align=&quot;center&quot; style=&quot;margin-top: 0px;&quot;&gt;&lt;font style=&quot;font-size: 29px;&quot;&gt;Headline&lt;/font&gt;&lt;/h1&gt;&lt;p align=&quot;center&quot;&gt;&lt;font style=&quot;font-size: 29px;&quot;&gt;&lt;font&gt;Short Description&lt;/font&gt;&lt;font&gt;&lt;br&gt;&lt;/font&gt;&lt;/font&gt;&lt;/p&gt;" style="text;html=1;whiteSpace=wrap;overflow=hidden;rounded=0;align=center;" vertex="1" parent="1">
          <mxGeometry x="300" y="621" width="468" height="114" as="geometry" />
        </mxCell>
        <mxCell id="44x8UHvKD6XHon5MFAgd-31" value="" style="rounded=1;whiteSpace=wrap;html=1;" vertex="1" parent="1">
          <mxGeometry x="204" y="804" width="660" height="132" as="geometry" />
        </mxCell>
        <mxCell id="44x8UHvKD6XHon5MFAgd-32" value="&lt;h1 align=&quot;center&quot; style=&quot;margin-top: 0px;&quot;&gt;&lt;font style=&quot;font-size: 29px;&quot;&gt;Headline&lt;/font&gt;&lt;/h1&gt;&lt;p align=&quot;center&quot;&gt;&lt;font style=&quot;font-size: 29px;&quot;&gt;&lt;font&gt;Short Description&lt;/font&gt;&lt;font&gt;&lt;br&gt;&lt;/font&gt;&lt;/font&gt;&lt;/p&gt;" style="text;html=1;whiteSpace=wrap;overflow=hidden;rounded=0;align=center;" vertex="1" parent="1">
          <mxGeometry x="300" y="813" width="468" height="114" as="geometry" />
        </mxCell>
        <mxCell id="44x8UHvKD6XHon5MFAgd-34" value="" style="endArrow=none;html=1;rounded=0;exitX=1;exitY=0.5;exitDx=0;exitDy=0;strokeWidth=3;edgeStyle=orthogonalEdgeStyle;startArrow=block;startFill=1;" edge="1" parent="1" source="44x8UHvKD6XHon5MFAgd-14">
          <mxGeometry width="50" height="50" relative="1" as="geometry">
            <mxPoint x="-48" y="386" as="sourcePoint" />
            <mxPoint x="36" y="48" as="targetPoint" />
          </mxGeometry>
        </mxCell>
        <mxCell id="44x8UHvKD6XHon5MFAgd-35" value="" style="rounded=1;whiteSpace=wrap;html=1;" vertex="1" parent="1">
          <mxGeometry x="1260" y="252" width="300" height="132" as="geometry" />
        </mxCell>
        <mxCell id="44x8UHvKD6XHon5MFAgd-36" value="&lt;font style=&quot;font-size: 28px;&quot;&gt;Topic&lt;/font&gt;" style="text;html=1;whiteSpace=wrap;overflow=hidden;rounded=0;align=center;" vertex="1" parent="1">
          <mxGeometry x="1284" y="282.5" width="252" height="65.5" as="geometry" />
        </mxCell>
        <mxCell id="44x8UHvKD6XHon5MFAgd-37" value="" style="rounded=1;whiteSpace=wrap;html=1;" vertex="1" parent="1">
          <mxGeometry x="1260" y="396" width="300" height="132" as="geometry" />
        </mxCell>
        <mxCell id="44x8UHvKD6XHon5MFAgd-38" value="&lt;font style=&quot;font-size: 28px;&quot;&gt;Topic&lt;/font&gt;" style="text;html=1;whiteSpace=wrap;overflow=hidden;rounded=0;align=center;" vertex="1" parent="1">
          <mxGeometry x="1284" y="426.5" width="252" height="65.5" as="geometry" />
        </mxCell>
        <mxCell id="44x8UHvKD6XHon5MFAgd-39" value="" style="rounded=1;whiteSpace=wrap;html=1;" vertex="1" parent="1">
          <mxGeometry x="1260" y="540" width="300" height="132" as="geometry" />
        </mxCell>
        <mxCell id="44x8UHvKD6XHon5MFAgd-40" value="&lt;font style=&quot;font-size: 28px;&quot;&gt;Topic&lt;/font&gt;" style="text;html=1;whiteSpace=wrap;overflow=hidden;rounded=0;align=center;" vertex="1" parent="1">
          <mxGeometry x="1284" y="570.5" width="252" height="65.5" as="geometry" />
        </mxCell>
        <mxCell id="44x8UHvKD6XHon5MFAgd-41" value="" style="rounded=1;whiteSpace=wrap;html=1;" vertex="1" parent="1">
          <mxGeometry x="1260" y="684" width="300" height="132" as="geometry" />
        </mxCell>
        <mxCell id="44x8UHvKD6XHon5MFAgd-42" value="&lt;font style=&quot;font-size: 28px;&quot;&gt;Topic&lt;/font&gt;" style="text;html=1;whiteSpace=wrap;overflow=hidden;rounded=0;align=center;" vertex="1" parent="1">
          <mxGeometry x="1284" y="714.5" width="252" height="65.5" as="geometry" />
        </mxCell>
        <mxCell id="44x8UHvKD6XHon5MFAgd-43" value="" style="rounded=1;whiteSpace=wrap;html=1;" vertex="1" parent="1">
          <mxGeometry x="1260" y="828" width="300" height="132" as="geometry" />
        </mxCell>
        <mxCell id="44x8UHvKD6XHon5MFAgd-44" value="&lt;font style=&quot;font-size: 28px;&quot;&gt;Topic&lt;/font&gt;" style="text;html=1;whiteSpace=wrap;overflow=hidden;rounded=0;align=center;" vertex="1" parent="1">
          <mxGeometry x="1284" y="858.5" width="252" height="65.5" as="geometry" />
        </mxCell>
        <mxCell id="44x8UHvKD6XHon5MFAgd-45" value="&lt;font style=&quot;font-size: 40px;&quot;&gt;Leading News&lt;br&gt;&lt;/font&gt;" style="text;html=1;align=center;verticalAlign=middle;whiteSpace=wrap;rounded=0;" vertex="1" parent="1">
          <mxGeometry x="264" y="120" width="540" height="120" as="geometry" />
        </mxCell>
        <mxCell id="44x8UHvKD6XHon5MFAgd-46" value="&lt;font style=&quot;font-size: 34px;&quot;&gt;Topics&lt;/font&gt;" style="text;html=1;align=center;verticalAlign=middle;whiteSpace=wrap;rounded=0;" vertex="1" parent="1">
          <mxGeometry x="1326" y="144" width="168" height="72" as="geometry" />
        </mxCell>
        <mxCell id="44x8UHvKD6XHon5MFAgd-47" value="" style="endArrow=none;html=1;rounded=0;strokeWidth=3;strokeColor=#FFCC99;" edge="1" parent="1">
          <mxGeometry width="50" height="50" relative="1" as="geometry">
            <mxPoint x="378" y="214.45999999999998" as="sourcePoint" />
            <mxPoint x="690" y="214.45999999999998" as="targetPoint" />
            <Array as="points" />
          </mxGeometry>
        </mxCell>
        <mxCell id="44x8UHvKD6XHon5MFAgd-48" value="" style="endArrow=none;html=1;rounded=0;strokeWidth=3;strokeColor=#FFCC99;" edge="1" parent="1">
          <mxGeometry width="50" height="50" relative="1" as="geometry">
            <mxPoint x="1320" y="216" as="sourcePoint" />
            <mxPoint x="1512" y="216" as="targetPoint" />
            <Array as="points" />
          </mxGeometry>
        </mxCell>
      </root>
    </mxGraphModel>
  </diagram>
</mxfile>
